<svg width="45" height="16" viewBox="0 0 45 16" fill="none" xmlns="http://www.w3.org/2000/svg">
<path d="M8.53101 15.9419V9.04199H15.837L16.621 10.064L17.431 9.04199H43.949V15.4659C43.499 15.7526 42.982 15.9166 42.449 15.9419H27.769L26.885 14.8539V15.9419H23.985V14.085C23.5986 14.2813 23.1666 14.3708 22.734 14.344H21.748V15.944H17.363L16.58 14.8999L15.785 15.944L8.53101 15.9419Z" fill="white"/>
<path d="M0 3.84106L1.647 0.000120327H4.5L5.435 2.15112V0.000120327H8.977L9.534 1.55505L10.074 0.000120327H25.974V0.782103C26.5957 0.270193 27.3777 -0.00662223 28.183 0.000120327L33.342 0.0180647L34.261 2.14111V0.000120327H37.225L38.041 1.22009V0.000120327H41.032V6.90002H38.035L37.253 5.67602V6.90002H32.9L32.462 5.81213H31.29L30.859 6.90002H27.906C27.1881 6.89159 26.4985 6.61889 25.969 6.13403V6.90002H21.515L20.631 5.81213V6.90002H4.074L3.636 5.81213H2.47L2.035 6.90002H0V3.84106Z" fill="#7C7C7C"/>
<path d="M2.23006 0.851074L0.00805664 6.01807H1.45506L1.86506 4.98303H4.24905L4.65705 6.01807H6.13506L3.91505 0.851074H2.23006ZM3.05206 2.05103L3.77906 3.85901H2.32306L3.05206 2.05103Z" fill="white"/>
<path d="M6.28796 6.01709V0.850098L8.34396 0.858032L9.54396 4.18909L10.711 0.850098H12.75V6.01709H11.455V2.21008L10.086 6.01709H8.95296L7.57996 2.21008V6.01709H6.28796Z" fill="white"/>
<path d="M13.63 6.01709V0.850098H17.845V2.0061H14.935V2.89014H17.777V3.97815H14.935V4.89612H17.845V6.01807L13.63 6.01709Z" fill="white"/>
<path d="M18.595 0.851167V6.01816H19.887V4.18308H20.431L21.98 6.01816H23.558L21.858 4.11813C22.25 4.0791 22.6131 3.89442 22.8755 3.60056C23.1378 3.30669 23.2804 2.92501 23.275 2.5311C23.2764 2.2994 23.2297 2.06993 23.1377 1.85727C23.0457 1.64461 22.9105 1.45348 22.7407 1.29587C22.5708 1.13826 22.3701 1.01761 22.1512 0.941743C21.9322 0.865875 21.6999 0.836349 21.469 0.855073L18.595 0.851167ZM19.887 2.00717H21.363C21.5154 2.00177 21.664 2.05528 21.7779 2.15659C21.8919 2.25789 21.9625 2.39915 21.975 2.55112C21.9647 2.70054 21.8975 2.84025 21.7871 2.9415C21.6767 3.04274 21.5317 3.09772 21.382 3.09506H19.882L19.887 2.00717Z" fill="white"/>
<path d="M25.119 6.01709H23.8V0.850098H25.119V6.01709Z" fill="white"/>
<path d="M28.2461 6.01594H27.9611C27.6418 6.00962 27.3275 5.9362 27.0384 5.80049C26.7494 5.66477 26.4921 5.46983 26.2833 5.22822C26.0745 4.98661 25.9188 4.70369 25.8264 4.39802C25.7341 4.09235 25.7071 3.77073 25.7471 3.45393C25.7113 3.10663 25.7528 2.75571 25.8686 2.42634C25.9844 2.09697 26.1717 1.79727 26.4169 1.54878C26.6621 1.30028 26.9594 1.1091 27.2872 0.988962C27.615 0.868829 27.9653 0.822763 28.3131 0.853953H29.7411V2.07795H28.2611C28.0875 2.08197 27.9167 2.12221 27.7597 2.19624C27.6027 2.27026 27.463 2.37644 27.3495 2.50776C27.2359 2.63908 27.1512 2.79262 27.1007 2.95869C27.0501 3.12476 27.0349 3.29958 27.0561 3.47187C27.0312 3.66201 27.05 3.85535 27.1109 4.03718C27.1717 4.21901 27.2731 4.38467 27.4074 4.52156C27.5417 4.65844 27.7053 4.763 27.886 4.82734C28.0666 4.89168 28.2595 4.91406 28.45 4.89289H28.7901L28.2461 6.01594Z" fill="white"/>
<path d="M31.056 0.851074L28.834 6.01807H30.282L30.692 4.98303H33.0759L33.4839 6.01807H34.963L32.743 0.851074H31.056ZM31.8779 2.05103L32.605 3.85901H31.15L31.8779 2.05103Z" fill="white"/>
<path d="M35.1119 6.01709V0.850098H36.754L38.8539 4.09607V0.850098H40.1459V6.01709H38.5569L36.407 2.68604V6.01709H35.1119Z" fill="white"/>
<path d="M9.41699 15.0581V9.89111H13.632V11.0471H10.717V11.9312H13.559V13.0192H10.717V13.9371H13.627V15.0591L9.41699 15.0581Z" fill="#7C7C7C"/>
<path d="M30.067 15.0581V9.89111H34.282V11.0471H31.372V11.9312H34.2V13.0192H31.372V13.9371H34.282V15.0591L30.067 15.0581Z" fill="#7C7C7C"/>
<path d="M13.793 15.0581L15.845 12.5071L13.745 9.89209H15.372L16.623 11.5092L17.879 9.89209H19.443L17.37 12.4751L19.426 15.0581H17.799L16.579 13.4661L15.394 15.0571L13.793 15.0581Z" fill="#7C7C7C"/>
<path d="M19.578 9.893V15.06H20.904V13.429H22.264C22.5187 13.4628 22.7777 13.4413 23.0234 13.3659C23.269 13.2905 23.4955 13.1631 23.6874 12.9922C23.8794 12.8214 24.0322 12.6112 24.1355 12.3759C24.2388 12.1406 24.2901 11.8859 24.286 11.629C24.2924 11.3889 24.2478 11.1501 24.1552 10.9285C24.0627 10.7069 23.9242 10.5075 23.7489 10.3433C23.5737 10.1791 23.3656 10.0538 23.1385 9.97588C22.9113 9.89792 22.6702 9.86894 22.431 9.89092L19.578 9.893ZM20.904 11.061H22.336C22.418 11.0533 22.5007 11.0632 22.5786 11.0898C22.6566 11.1164 22.728 11.1592 22.7881 11.2154C22.8483 11.2716 22.8959 11.34 22.9278 11.4159C22.9597 11.4919 22.9751 11.5736 22.973 11.6559C22.9725 11.738 22.9552 11.8191 22.9222 11.8942C22.8891 11.9693 22.8411 12.0368 22.7809 12.0926C22.7207 12.1483 22.6497 12.1911 22.5724 12.2183C22.495 12.2456 22.4129 12.2568 22.331 12.251H20.903L20.904 11.061Z" fill="#7C7C7C"/>
<path d="M24.8459 9.89206V15.0591H26.1379V13.2241H26.6819L28.231 15.0591H29.809L28.1089 13.159C28.501 13.12 28.8641 12.9353 29.1265 12.6414C29.3888 12.3476 29.5314 11.966 29.5259 11.5721C29.5274 11.3404 29.4807 11.1109 29.3887 10.8983C29.2967 10.6856 29.1615 10.4944 28.9916 10.3368C28.8218 10.1792 28.6211 10.0586 28.4022 9.98276C28.1832 9.90689 27.9509 9.87736 27.72 9.89609L24.8459 9.89206ZM26.1379 11.0481H27.614C27.7663 11.0427 27.915 11.0962 28.0289 11.1975C28.1429 11.2988 28.2134 11.44 28.226 11.592C28.2157 11.7414 28.1485 11.8813 28.0381 11.9825C27.9277 12.0838 27.7827 12.1387 27.6329 12.1361H26.1329L26.1379 11.0481Z" fill="#7C7C7C"/>
<path d="M34.881 15.0581V13.9362H37.4659C37.8489 13.9362 38.014 13.7292 38.014 13.5032C38.014 13.2772 37.8489 13.0662 37.4659 13.0662H36.298C36.0882 13.0868 35.8764 13.0612 35.6775 12.9912C35.4787 12.9212 35.2975 12.8086 35.1468 12.6611C34.9962 12.5137 34.8796 12.3351 34.8053 12.1378C34.7311 11.9405 34.7009 11.7294 34.717 11.5192C34.717 10.6912 35.2349 9.89209 36.7439 9.89209H39.259L38.7149 11.0541H36.54C36.124 11.0541 35.996 11.2721 35.996 11.4811C35.9958 11.5424 36.0083 11.6032 36.0325 11.6595C36.0567 11.7159 36.0922 11.7667 36.1368 11.8088C36.1814 11.851 36.2341 11.8836 36.2917 11.9047C36.3494 11.9257 36.4107 11.9347 36.4719 11.9312H37.6959C37.9042 11.9002 38.1168 11.916 38.3182 11.9775C38.5195 12.039 38.7046 12.1446 38.8601 12.2866C39.0155 12.4287 39.1374 12.6036 39.2168 12.7986C39.2961 12.9936 39.331 13.2038 39.3189 13.4141C39.3336 13.6373 39.2997 13.8611 39.2196 14.0699C39.1395 14.2788 39.0151 14.4679 38.855 14.6241C38.6948 14.7804 38.5028 14.9001 38.292 14.975C38.0812 15.0499 37.8567 15.0782 37.634 15.0581H34.881Z" fill="#7C7C7C"/>
<path d="M39.621 15.0581V13.9362H42.2059C42.5889 13.9362 42.7539 13.7292 42.7539 13.5032C42.7539 13.2772 42.5889 13.0662 42.2059 13.0662H41.0379C40.8281 13.0868 40.6164 13.0612 40.4175 12.9912C40.2187 12.9212 40.0375 12.8086 39.8868 12.6611C39.7361 12.5137 39.6196 12.3351 39.5453 12.1378C39.4711 11.9405 39.4409 11.7294 39.4569 11.5192C39.4569 10.6912 39.9749 9.89209 41.4839 9.89209H43.9949L43.451 11.0541H41.2759C40.8599 11.0541 40.7319 11.2721 40.7319 11.4811C40.7318 11.5424 40.7443 11.6032 40.7685 11.6595C40.7927 11.7159 40.8282 11.7667 40.8728 11.8088C40.9174 11.851 40.9701 11.8836 41.0278 11.9047C41.0854 11.9257 41.1467 11.9347 41.2079 11.9312H42.4319C42.6402 11.9002 42.8527 11.916 43.0541 11.9775C43.2555 12.039 43.4407 12.1446 43.5961 12.2866C43.7516 12.4287 43.8734 12.6036 43.9527 12.7986C44.0321 12.9936 44.067 13.2038 44.0549 13.4141C44.0695 13.6373 44.0357 13.8611 43.9556 14.0699C43.8755 14.2788 43.7511 14.4679 43.591 14.6241C43.4309 14.7804 43.2388 14.9001 43.0281 14.975C42.8173 15.0499 42.5927 15.0782 42.3699 15.0581H39.621Z" fill="#7C7C7C"/>
</svg>
