<svg width="234" height="80" viewBox="0 0 234 80" fill="none" xmlns="http://www.w3.org/2000/svg">
<rect y="0.5" width="234" height="79" fill="white"/>
<path d="M54.2165 47.1681C55.9731 47.2474 57.7847 47.2606 59.6511 47.2078V47.287C59.7061 48.1324 59.7197 49.0174 59.6923 49.942C59.6649 50.8402 59.5414 51.6856 59.3218 52.4781C56.5221 52.4517 53.6675 52.4914 50.7581 52.597C47.8761 52.6763 45.1039 52.6103 42.4415 52.3989C42.4415 50.1005 42.4141 47.8286 42.3592 45.5831C42.3043 43.3111 42.2631 41.0524 42.2357 38.8069C42.2082 36.5614 42.2082 34.3158 42.2357 32.0703C42.2631 29.8248 42.3454 27.5661 42.4827 25.2941C43.5531 25.2413 44.7059 25.2016 45.9411 25.1752C47.2036 25.1224 48.4663 25.0827 49.7288 25.0564C50.9914 25.03 52.2129 25.0035 53.3931 24.9771C54.5733 24.9507 55.6163 24.9375 56.5221 24.9375C57.4279 24.9375 58.1552 24.9507 58.7042 24.9771C59.2532 25.0035 59.5276 25.03 59.5276 25.0564C59.6649 25.981 59.6923 26.9188 59.61 27.8699C59.555 28.8209 59.5276 29.7587 59.5276 30.6834V30.723C58.6493 30.9079 57.7573 31.0268 56.8515 31.0796C55.9731 31.106 55.0811 31.1193 54.1753 31.1193C53.2696 31.0929 52.3638 31.0796 51.458 31.0796C50.5523 31.0796 49.6465 31.1193 48.7407 31.1985H48.6172L48.576 31.2381C48.6035 32.0043 48.5623 32.7968 48.4525 33.6158C48.3702 34.4083 48.4251 35.1612 48.6172 35.8745L48.6584 35.9141C49.4818 35.967 50.319 35.9934 51.1698 35.9934C52.0207 35.9934 52.8716 36.0066 53.7225 36.033V36.0726C53.8597 36.9708 53.9009 37.8691 53.846 38.7672C53.7911 39.6654 53.7774 40.6033 53.8048 41.5808C53.3931 41.6864 52.9265 41.7525 52.405 41.7789C51.8835 41.7789 51.3757 41.7789 50.8816 41.7789C50.415 41.7789 49.9896 41.7921 49.6053 41.8185C49.221 41.8449 48.9603 41.911 48.8231 42.0167C48.6858 42.7828 48.631 43.6414 48.6584 44.5924C48.7133 45.5434 48.7682 46.336 48.8231 46.97L48.8642 47.0096C50.6758 47.0096 52.4599 47.0625 54.2165 47.1681ZM69.2624 30.6834C68.8781 30.7626 68.5762 30.9079 68.3566 31.1193C68.3017 31.1721 68.2468 31.2645 68.192 31.3966C68.1645 31.5023 68.137 31.5816 68.1096 31.6344C68.0547 31.7137 67.9998 32.176 67.9449 33.0214C67.9174 33.8667 67.89 34.8706 67.8626 36.033C67.8351 37.1954 67.8214 38.4106 67.8214 39.6787C67.8214 40.9203 67.8626 42.0034 67.9449 42.9281C68.0273 43.6942 68.2331 44.4471 68.5625 45.1868C68.9193 45.9001 69.4957 46.3624 70.2917 46.5737C70.8955 46.6266 71.4582 46.5473 71.9797 46.336C72.5286 46.0982 72.9403 45.7152 73.2149 45.1868C73.5167 44.5792 73.6402 43.9451 73.5854 43.2847C73.5579 42.5978 73.6128 41.9242 73.7501 41.2637C74.1343 41.3166 74.5598 41.3298 75.0262 41.3034C75.5202 41.277 76.0143 41.2637 76.5084 41.2637C77.0024 41.2637 77.4832 41.277 77.9494 41.3034C78.4434 41.3298 78.883 41.3959 79.2668 41.5015C79.7337 42.8752 79.8572 44.249 79.6374 45.6227C79.4183 46.97 78.9375 48.1852 78.1964 49.2684C77.4553 50.3515 76.4811 51.2497 75.2732 51.963C74.0931 52.6499 72.7482 53.0065 71.2386 53.0329C70.2505 53.165 69.2349 53.165 68.192 53.0329C67.1489 52.9273 66.1746 52.6763 65.2688 52.28C64.363 51.8573 63.5944 51.2761 62.9632 50.5364C62.3593 49.7967 62.0025 48.8721 61.8927 47.7625C61.8378 46.8115 61.7966 45.8208 61.7692 44.7905C61.7417 43.7602 61.7143 42.6111 61.6869 41.343C61.6869 40.0485 61.6869 38.5955 61.6869 36.984C61.7143 35.3461 61.7417 33.4572 61.7692 31.3174C61.7143 30.8683 61.7281 30.4192 61.8104 29.9701C61.9202 29.4946 62.0574 29.0587 62.2221 28.6624C62.4691 27.9755 62.771 27.3415 63.1279 26.7603C63.5121 26.1791 63.965 25.664 64.4865 25.2149C64.7884 25.0035 65.1178 24.8318 65.4746 24.6997C65.8314 24.5412 66.202 24.4091 66.5863 24.3034C67.8488 23.9072 69.0977 23.7487 70.3329 23.8279C71.568 23.9072 72.7208 24.1846 73.7913 24.6601C74.8894 25.1092 75.8775 25.7168 76.7554 26.4829C77.6339 27.2491 78.3339 28.134 78.8551 29.1379C79.3771 30.1154 79.6925 31.1853 79.8021 32.3477C79.9123 33.5101 79.7476 34.6989 79.308 35.9141C78.2927 36.1255 77.2906 36.2047 76.3025 36.1519C75.3423 36.0726 74.3402 35.9405 73.2972 35.7556C73.2149 35.2537 73.1599 34.6857 73.1325 34.0517C73.1325 33.4176 73.0639 32.8364 72.9267 32.3081C72.7894 31.7533 72.5286 31.3042 72.1444 30.9608C71.7875 30.6173 71.2111 30.4588 70.4152 30.4852C70.0583 30.5381 69.6741 30.6041 69.2624 30.6834ZM96.8177 26.7207C97.6139 27.4076 98.1763 28.2133 98.5057 29.1379C98.6976 29.5342 98.8351 29.9437 98.9174 30.3664C99.027 30.7626 99.1093 31.1721 99.1645 31.5948C99.2196 32.2552 99.2468 32.9157 99.2468 33.5761C99.274 34.2102 99.274 34.8574 99.2468 35.5178C99.1645 36.918 99.1372 38.2785 99.1645 39.5994C99.1917 40.9203 99.1505 42.2676 99.0409 43.6414L98.9174 44.949C98.8623 45.8737 98.7116 46.8115 98.4645 47.7625C98.2175 48.6872 97.847 49.5325 97.3529 50.2987C96.8861 50.9327 96.2685 51.4478 95.5002 51.8441C94.7591 52.214 93.9629 52.5045 93.1123 52.7159C92.344 52.9273 91.5617 53.0593 90.7655 53.1122C89.9972 53.165 89.2149 53.165 88.4187 53.1122C87.8423 53.0593 87.2799 52.9801 86.7307 52.8744C86.2094 52.7952 85.7014 52.6499 85.2074 52.4385C84.7405 52.2271 84.3156 51.963 83.9311 51.646C83.5466 51.3026 83.2311 50.8667 82.9841 50.3383C82.5996 49.6779 82.3393 48.9777 82.2019 48.2381C82.0923 47.4719 82.0232 46.7059 81.996 45.9397C81.9137 43.8791 81.8174 41.8185 81.7078 39.7579C81.6255 37.6709 81.6527 35.5839 81.7901 33.4969C81.8174 32.3081 81.9688 31.1193 82.243 29.9305C82.5452 28.7153 83.1216 27.6453 83.9722 26.7207C84.2465 26.4565 84.5626 26.2188 84.9192 26.0074C85.8249 25.5847 86.7991 25.2809 87.8423 25.096C88.9128 24.8846 89.9693 24.8054 91.0125 24.8582C92.083 24.9111 93.1123 25.096 94.1004 25.413C95.1157 25.7036 96.0215 26.1395 96.8177 26.7207ZM94.1004 40.709V38.8069L94.018 36.1122C94.018 36.0859 93.9908 35.8216 93.9357 35.3197C93.9085 34.7913 93.8806 34.3026 93.8534 33.8535C93.7982 33.1138 93.5791 32.4402 93.1946 31.8325C92.838 31.2249 92.344 30.7759 91.7124 30.4852C91.1633 30.2739 90.6008 30.2342 90.0244 30.3664C89.448 30.4985 88.94 30.723 88.5011 31.04C87.5402 31.7533 86.8954 32.6647 86.566 33.7743C86.3462 34.7782 86.2094 35.8349 86.1543 36.9444C86.1271 38.054 86.1404 39.1635 86.1955 40.2731C86.333 41.1977 86.4286 42.1488 86.4837 43.1262C86.5388 44.0772 86.7035 44.9887 86.9777 45.8605C87.252 46.3888 87.6504 46.7983 88.1717 47.0889C88.693 47.3795 89.2561 47.5512 89.8597 47.604C90.4633 47.6304 91.0677 47.5512 91.6713 47.3663C92.2749 47.1549 92.7829 46.8247 93.1946 46.3756C93.4416 46.0586 93.6203 45.8076 93.7298 45.6227C93.8394 45.4113 93.9085 45.1868 93.9357 44.949C93.9629 44.7113 93.9629 44.4339 93.9357 44.1169C93.9357 43.7735 93.9629 43.3243 94.018 42.7696C94.0453 42.2412 94.0592 41.7789 94.0592 41.3826C94.0864 40.9864 94.1004 40.7618 94.1004 40.709ZM119.19 48.2777C119.19 48.5419 119.204 48.7796 119.231 48.991C119.286 49.942 119.313 50.6685 119.313 51.1705C119.313 51.646 119.272 52.0026 119.19 52.2404C119.135 52.4517 119.025 52.5706 118.86 52.597C118.696 52.597 118.463 52.597 118.16 52.597C117.859 52.5706 117.461 52.5706 116.967 52.597C116.5 52.6234 115.69 52.6499 114.537 52.6763C113.413 52.7027 111.848 52.7159 109.844 52.7159C107.868 52.7159 105.219 52.6895 101.898 52.6367V51.9234C101.98 49.942 102.049 48.1588 102.104 46.5737C102.159 44.9623 102.186 43.4696 102.186 42.0959C102.214 40.6957 102.227 39.3484 102.227 38.054C102.227 36.7595 102.214 35.4386 102.186 34.0913C102.159 32.744 102.132 31.3174 102.104 29.8116C102.076 28.2794 102.049 26.5886 102.021 24.7393C102.296 24.6337 102.721 24.5544 103.298 24.5016C103.874 24.4223 104.492 24.3827 105.15 24.3827C105.809 24.3827 106.455 24.4223 107.085 24.5016C107.717 24.5808 108.225 24.6997 108.609 24.8582C108.554 26.5754 108.526 28.3454 108.526 30.1682C108.554 31.9647 108.582 33.7743 108.609 35.5971C108.637 37.4199 108.65 39.2428 108.65 41.0656C108.678 42.862 108.678 44.6056 108.65 46.2964V46.336C108.843 46.2831 109.199 46.27 109.72 46.2964C110.27 46.2964 110.901 46.3096 111.614 46.336C112.328 46.3624 113.083 46.402 113.879 46.4549C114.702 46.4813 115.471 46.5077 116.184 46.5341C116.925 46.5605 117.571 46.587 118.119 46.6134C118.696 46.6134 119.094 46.6001 119.313 46.5737C119.313 46.8644 119.3 47.1549 119.272 47.4455C119.245 47.7097 119.218 47.9871 119.19 48.2777ZM138.168 48.2777C138.168 48.5419 138.181 48.7796 138.209 48.991C138.263 49.942 138.291 50.6685 138.291 51.1705C138.291 51.646 138.25 52.0026 138.168 52.2404C138.113 52.4517 138.003 52.5706 137.838 52.597C137.674 52.597 137.44 52.597 137.138 52.597C136.836 52.5706 136.438 52.5706 135.944 52.597C135.478 52.6234 134.668 52.6499 133.515 52.6763C132.39 52.7027 130.825 52.7159 128.822 52.7159C126.846 52.7159 124.197 52.6895 120.876 52.6367V51.9234C120.958 49.942 121.026 48.1588 121.082 46.5737C121.136 44.9623 121.164 43.4696 121.164 42.0959C121.191 40.6957 121.205 39.3484 121.205 38.054C121.205 36.7595 121.191 35.4386 121.164 34.0913C121.136 32.744 121.109 31.3174 121.082 29.8116C121.054 28.2794 121.026 26.5886 120.999 24.7393C121.273 24.6337 121.699 24.5544 122.276 24.5016C122.852 24.4223 123.469 24.3827 124.128 24.3827C124.787 24.3827 125.432 24.4223 126.063 24.5016C126.694 24.5808 127.202 24.6997 127.587 24.8582C127.532 26.5754 127.504 28.3454 127.504 30.1682C127.532 31.9647 127.559 33.7743 127.587 35.5971C127.614 37.4199 127.628 39.2428 127.628 41.0656C127.655 42.862 127.655 44.6056 127.628 46.2964V46.336C127.82 46.2831 128.176 46.27 128.698 46.2964C129.247 46.2964 129.878 46.3096 130.592 46.336C131.305 46.3624 132.06 46.402 132.857 46.4549C133.68 46.4813 134.448 46.5077 135.162 46.5341C135.903 46.5605 136.548 46.587 137.097 46.6134C137.674 46.6134 138.071 46.6001 138.291 46.5737C138.291 46.8644 138.277 47.1549 138.25 47.4455C138.222 47.7097 138.195 47.9871 138.168 48.2777ZM156.404 25.73C156.925 25.7829 157.351 25.9017 157.68 26.0867C157.845 29.4682 157.9 32.8892 157.845 36.35C157.79 39.7843 157.571 43.2055 157.186 46.6134C156.966 48.3569 156.28 49.8364 155.127 51.0516C153.975 52.2668 152.41 52.9669 150.434 53.1518C149.281 53.2575 148.087 53.2047 146.852 52.9933C145.617 52.8084 144.491 52.4649 143.476 51.963C142.488 51.4346 141.65 50.7478 140.965 49.9024C140.306 49.0306 139.949 47.9871 139.894 46.7719C139.894 43.2847 139.935 39.7712 140.018 36.2311C140.1 32.6911 140.114 29.1775 140.059 25.6904L140.018 25.6508H140.059C140.47 25.6508 140.923 25.6375 141.417 25.6111C141.939 25.5847 142.461 25.5715 142.982 25.5715C143.503 25.5715 144.011 25.5979 144.505 25.6508C144.999 25.6772 145.452 25.7432 145.864 25.8489V25.8885C145.562 32.2817 145.685 38.7672 146.234 45.3453C146.426 45.9793 146.77 46.4416 147.264 46.7322C147.785 47.0229 148.32 47.1549 148.869 47.1285C149.419 47.1021 149.926 46.9172 150.393 46.5737C150.86 46.2303 151.161 45.7548 151.299 45.1472C151.436 41.977 151.504 38.754 151.504 35.4782C151.532 32.2024 151.587 29.0323 151.669 25.9678C152.026 25.9414 152.479 25.9017 153.028 25.8489C153.604 25.7696 154.181 25.7168 154.757 25.6904C155.333 25.664 155.883 25.6772 156.404 25.73ZM178.096 32.5062C178.206 34.9631 178.193 37.4596 178.055 39.9957L177.932 52.6367C177.52 52.5838 177.067 52.5574 176.573 52.5574C176.079 52.5574 175.585 52.5574 175.091 52.5574C174.597 52.5574 174.117 52.5706 173.65 52.597C173.211 52.597 172.826 52.597 172.497 52.597C172.442 51.4611 172.401 50.2326 172.373 48.9117C172.373 47.5908 172.359 46.2435 172.332 44.8698C172.332 43.4961 172.291 42.1488 172.209 40.8278C172.154 39.5069 172.058 38.2917 171.921 37.1822C171.729 37.4728 171.509 37.9351 171.262 38.5691C171.015 39.1767 170.768 39.8108 170.521 40.4712C170.274 41.1316 170.041 41.7129 169.821 42.2148C169.601 42.7167 169.436 42.9677 169.327 42.9677C169.189 42.9677 169.025 42.8356 168.833 42.5714C168.668 42.2808 168.489 41.9242 168.297 41.5015C168.133 41.0788 167.954 40.6297 167.762 40.1542C167.57 39.6787 167.406 39.2428 167.268 38.8465C167.131 38.4502 167.007 38.12 166.898 37.8558C166.815 37.5917 166.774 37.4596 166.774 37.4596C166.554 39.9428 166.472 42.4525 166.527 44.9887C166.609 47.5248 166.733 50.0213 166.898 52.4781C166.019 52.6103 165.059 52.663 164.016 52.6367C162.972 52.6103 162.012 52.597 161.134 52.597C161.078 52.597 161.037 52.5574 161.01 52.4781C160.983 52.3725 160.955 52.1215 160.928 51.7252C160.901 51.329 160.873 50.7346 160.845 49.942C160.845 49.1231 160.845 48.0532 160.845 46.7322C160.845 45.4113 160.845 43.7735 160.845 41.8185C160.873 39.8636 160.887 37.5388 160.887 34.8442C160.914 32.1496 160.942 29.0058 160.969 25.413C161.326 25.3073 161.737 25.2413 162.204 25.2149C162.671 25.1885 163.151 25.1885 163.645 25.2149C164.139 25.2149 164.633 25.2281 165.127 25.2545C165.621 25.2545 166.101 25.2413 166.568 25.2149H166.609C166.856 25.479 167.103 25.8885 167.35 26.4433C167.598 26.9717 167.831 27.5396 168.05 28.1472C168.27 28.7549 168.476 29.3361 168.668 29.8908C168.888 30.4456 169.107 30.8815 169.327 31.1985C169.409 31.2778 169.491 31.3174 169.574 31.3174C169.656 31.3438 169.78 31.0929 169.944 30.5645C170.136 30.0361 170.329 29.4285 170.521 28.7417C170.74 28.0284 170.974 27.3283 171.221 26.6414C171.495 25.9545 171.756 25.4526 172.003 25.1356C172.195 25.162 172.538 25.162 173.032 25.1356C173.553 25.1092 174.103 25.0827 174.679 25.0564C175.283 25.03 175.887 25.0167 176.491 25.0167C177.122 24.9903 177.657 24.9771 178.096 24.9771C177.987 27.5132 177.987 30.0229 178.096 32.5062ZM185.095 24.7393C185.753 24.7657 186.7 24.7657 187.935 24.7393H188.924V24.8978C188.924 27.1698 188.882 29.4549 188.8 31.7533C188.745 34.0517 188.69 36.3632 188.635 38.688C188.607 40.9864 188.607 43.2847 188.635 45.5831C188.663 47.8814 188.745 50.1534 188.882 52.3989C188.663 52.6103 188.196 52.7291 187.483 52.7555C186.796 52.8084 186.042 52.8216 185.218 52.7952C184.422 52.7688 183.654 52.7291 182.913 52.6763C182.171 52.6499 181.663 52.6763 181.389 52.7555C181.581 50.3779 181.663 47.9871 181.636 45.5831C181.608 43.1791 181.554 40.8015 181.472 38.4502C181.416 36.0726 181.375 33.7346 181.348 31.4363C181.348 29.1115 181.472 26.8396 181.719 24.6205V24.5412C181.855 24.5148 182.116 24.528 182.501 24.5808C182.913 24.6072 183.214 24.6205 183.407 24.6205C183.901 24.6469 184.463 24.6865 185.095 24.7393ZM208.923 52.7159C208.731 52.7688 208.402 52.7952 207.935 52.7952C207.386 52.7952 206.755 52.7555 206.041 52.6763C205.327 52.6234 204.696 52.597 204.147 52.597C203.241 50.6421 202.336 48.7532 201.43 46.9304C200.551 45.0812 199.797 43.3111 199.165 41.6204L198.754 40.4316C198.644 40.141 198.534 39.8768 198.424 39.639C198.342 39.3749 198.274 39.2428 198.219 39.2428C198.191 39.2428 198.15 39.5598 198.095 40.1938C198.068 40.8278 198.04 41.6336 198.013 42.6111C197.985 43.5885 197.958 44.6717 197.93 45.8605C197.93 47.0493 197.93 48.1984 197.93 49.308C197.93 49.9156 197.93 50.51 197.93 51.0912C197.93 51.646 197.944 52.1479 197.971 52.597C197.669 52.6763 197.368 52.7291 197.066 52.7555C196.764 52.7819 196.462 52.7952 196.16 52.7952C195.501 52.7952 194.829 52.7555 194.143 52.6763C193.484 52.597 192.839 52.5574 192.208 52.5574V49.7835C192.208 47.2738 192.18 44.883 192.125 42.6111C192.098 40.3391 192.084 37.9615 192.084 35.4782C192.084 33.6554 192.111 31.8589 192.166 30.089C192.221 28.2925 192.317 26.5489 192.455 24.8582C192.729 24.8054 193.017 24.7657 193.319 24.7393C193.649 24.7129 193.978 24.6997 194.307 24.6997C194.472 24.6997 194.746 24.7129 195.131 24.7393C195.515 24.7393 195.899 24.7657 196.283 24.8186C196.668 24.845 196.997 24.8846 197.272 24.9375C197.574 24.9903 197.724 25.0431 197.724 25.096C197.916 25.5715 198.095 25.9678 198.26 26.2848C198.424 26.6018 198.575 26.9056 198.713 27.1962C198.877 27.4868 199.042 27.817 199.207 28.1869C199.399 28.5303 199.618 28.9794 199.865 29.5342C199.921 29.6663 200.044 29.9172 200.236 30.2871C200.428 30.657 200.648 31.0929 200.895 31.5948C201.142 32.0703 201.403 32.5855 201.677 33.1402C201.951 33.6686 202.198 34.1573 202.418 34.6064C202.665 35.0291 202.871 35.399 203.036 35.716C203.2 36.0066 203.297 36.1519 203.324 36.1519C203.406 36.099 203.475 35.8349 203.53 35.3593C203.585 34.8838 203.612 34.4215 203.612 33.9724C203.612 32.9157 203.585 31.9382 203.53 31.04C203.502 30.1154 203.488 29.1775 203.488 28.2265C203.488 27.6717 203.488 27.1169 203.488 26.5622C203.516 25.981 203.544 25.3601 203.571 24.6997C204.504 24.5412 205.492 24.4619 206.535 24.4619C207.55 24.4619 208.456 24.5412 209.252 24.6997V37.4596C209.28 38.5691 209.294 39.6919 209.294 40.8278C209.294 41.9638 209.294 43.0998 209.294 44.2358C209.294 45.0019 209.28 45.7416 209.252 46.4549C209.252 47.1681 209.252 47.8947 209.252 48.6343C209.252 49.1627 209.252 49.691 209.252 50.2194C209.28 50.7478 209.294 51.2761 209.294 51.8045V52.597C209.238 52.6234 209.115 52.663 208.923 52.7159ZM225.435 36.8652C225.627 37.6313 225.777 38.2389 225.888 38.688L228.976 52.5574V52.597C228.152 52.7555 227.246 52.8084 226.258 52.7555C225.27 52.7291 224.336 52.6234 223.459 52.4385H223.417C223.253 52.0159 223.088 51.5139 222.923 50.9327C222.786 50.3515 222.635 49.7571 222.471 49.1495C222.333 48.5419 222.182 47.9607 222.018 47.4059C221.853 46.8511 221.674 46.3756 221.482 45.9793C221.125 45.9265 220.851 45.9001 220.659 45.9001C220.466 45.9001 220.288 45.9001 220.124 45.9001C219.986 45.9001 219.822 45.9133 219.63 45.9397C219.465 45.9397 219.231 45.9397 218.93 45.9397C218.737 46.3624 218.573 46.8644 218.436 47.4455C218.325 48.0003 218.202 48.5947 218.065 49.2287C217.955 49.8364 217.831 50.4308 217.695 51.0119C217.557 51.5931 217.365 52.1083 217.118 52.5574C217.09 52.5574 217.063 52.5706 217.036 52.597C217.036 52.597 217.022 52.597 216.995 52.597C216.775 52.6499 216.226 52.6499 215.348 52.597C214.469 52.5442 213.097 52.531 211.231 52.5574C211.203 52.5574 211.176 52.5442 211.148 52.5178C211.203 52.3329 211.299 51.8177 211.437 50.9723C211.573 50.1269 211.766 49.0306 212.013 47.6833C212.26 46.336 212.548 44.7905 212.878 43.0469C213.234 41.277 213.646 39.4013 214.113 37.4199C214.579 35.4386 215.087 33.378 215.636 31.2381C216.185 29.0983 216.789 26.9717 217.448 24.8582C217.64 24.8318 217.845 24.8186 218.065 24.8186C218.284 24.8186 218.573 24.8186 218.93 24.8186C219.286 24.8186 219.739 24.8186 220.288 24.8186C220.865 24.7922 221.606 24.7393 222.512 24.6601C222.594 25.0035 222.718 25.5319 222.882 26.2452C223.074 26.932 223.266 27.7246 223.459 28.6228C223.678 29.4946 223.898 30.4324 224.117 31.4363C224.364 32.4402 224.597 33.4044 224.817 34.329C225.036 35.2537 225.242 36.099 225.435 36.8652ZM220.124 41.3034C220.645 41.277 221.166 41.2637 221.688 41.2637C221.413 38.9918 221.166 37.2218 220.947 35.9537C220.755 34.6857 220.577 33.8271 220.412 33.378C220.274 32.9289 220.124 32.8364 219.959 33.1006C219.822 33.3384 219.684 33.8403 219.547 34.6064C219.437 35.3726 219.3 36.3368 219.136 37.4992C218.998 38.6616 218.834 39.9164 218.642 41.2637C219.108 41.2901 219.602 41.3034 220.124 41.3034Z" fill="#006EC6"/>
<path d="M16.6013 54.8192C16.2833 54.8192 16.0162 54.7151 15.7999 54.507C15.5837 54.2989 15.4755 54.0417 15.4755 53.7356C15.4755 53.4418 15.5837 53.1908 15.7999 52.9827C16.0162 52.7745 16.2833 52.6705 16.6013 52.6705H28.6796C28.9849 52.6705 29.2457 52.7745 29.4619 52.9827C29.6782 53.1908 29.7863 53.4418 29.7863 53.7356C29.7863 54.0417 29.6782 54.2989 29.4619 54.507C29.2457 54.7151 28.9849 54.8192 28.6796 54.8192H16.6013ZM22.6309 60.1451C21.1426 60.1451 19.8515 59.8206 18.7574 59.1718C17.6762 58.5351 17.1038 57.6903 17.0402 56.6373H28.2407C28.1517 57.6903 27.5601 58.5351 26.4662 59.1718C25.3849 59.8206 24.1065 60.1451 22.6309 60.1451ZM15.4755 49.7688C15.3483 47.8098 15.1321 46.0957 14.8268 44.6265C14.5215 43.1451 14.1653 41.8411 13.7583 40.7147C13.3639 39.5883 12.9505 38.5721 12.518 37.6661C12.0982 36.7478 11.7039 35.8725 11.335 35.0399H33.946C33.577 35.8725 33.1763 36.7478 32.7438 37.6661C32.324 38.5721 31.9106 39.5883 31.5036 40.7147C31.0965 41.8411 30.7403 43.1451 30.435 44.6265C30.1297 46.0957 29.9198 47.8098 29.8054 49.7688C29.7799 50.0993 29.6655 50.3626 29.4619 50.5584C29.2584 50.7544 28.9722 50.8523 28.6032 50.8523H16.6585C16.2897 50.8523 16.0034 50.7544 15.7999 50.5584C15.6091 50.3626 15.501 50.0993 15.4755 49.7688ZM35.3961 28.7222C35.3961 29.4691 35.3452 30.1609 35.2434 30.7975C35.1544 31.4342 35.0208 32.0463 34.8427 32.634H10.4382C10.2601 32.0463 10.1201 31.4342 10.0184 30.7975C9.9166 30.1609 9.86572 29.4691 9.86572 28.7222C9.86572 27.1429 10.1901 25.6675 10.8389 24.2962C11.5003 22.925 12.4099 21.7251 13.5674 20.6966C14.7377 19.656 16.0925 18.8479 17.6317 18.2724C19.1836 17.697 20.85 17.4093 22.6309 17.4093C24.4118 17.4093 26.0782 17.697 27.6301 18.2724C29.182 18.8479 30.5368 19.656 31.6944 20.6966C32.8647 21.7251 33.7742 22.925 34.423 24.2962C35.0718 25.6675 35.3961 27.1429 35.3961 28.7222Z" fill="#E50D2E"/>
</svg>
