<svg width="28" height="17" viewBox="0 0 28 17" fill="none" xmlns="http://www.w3.org/2000/svg">
<path d="M18.4405 1.78931H10.4045V14.9153H18.4405V1.78931Z" fill="#B6B6B6"/>
<path d="M11.2325 8.35233C11.2316 7.08856 11.5181 5.84115 12.0704 4.70446C12.6227 3.56778 13.4264 2.57161 14.4205 1.79133C13.1891 0.823647 11.7103 0.22192 10.1531 0.0549194C8.59588 -0.112081 7.02311 0.162382 5.61452 0.846941C4.20593 1.5315 3.01834 2.59854 2.18748 3.9261C1.35662 5.25367 0.916016 6.7882 0.916016 8.35433C0.916016 9.92046 1.35662 11.455 2.18748 12.7826C3.01834 14.1101 4.20593 15.1772 5.61452 15.8617C7.02311 16.5463 8.59588 16.8207 10.1531 16.6537C11.7103 16.4867 13.1891 15.885 14.4205 14.9173C13.4258 14.1366 12.6219 13.1398 12.0696 12.0024C11.5172 10.865 11.231 9.61677 11.2325 8.35233Z" fill="#D2D2D2"/>
<path d="M27.9305 8.35336C27.931 9.92029 27.4903 11.4557 26.6591 12.7839C25.8278 14.1122 24.6394 15.1796 23.2299 15.8641C21.8204 16.5486 20.2467 16.8226 18.6888 16.6546C17.1309 16.4867 15.6517 15.8836 14.4205 14.9144C15.4144 14.1333 16.2179 13.1368 16.7705 11.9999C17.323 10.863 17.6101 9.61541 17.6101 8.35136C17.6101 7.08731 17.323 5.83977 16.7705 4.70286C16.2179 3.56596 15.4144 2.56939 14.4205 1.78836C15.6518 0.819092 17.1311 0.215995 18.689 0.0480703C20.247 -0.119854 21.8208 0.154177 23.2304 0.83881C24.6399 1.52344 25.8283 2.59103 26.6595 3.91942C27.4907 5.24781 27.9312 6.78335 27.9305 8.35036V8.35336Z" fill="white"/>
</svg>
