<svg enable-background="new 0 0 514 296" viewBox="0 0 514 296" xmlns="http://www.w3.org/2000/svg" xmlns:xlink="http://www.w3.org/1999/xlink"><defs><path id="a" d="m300.21 76.6c-12.58 1.8-25.15 2.79-37.74 2.94-.19-4.93-.42-9.85-.7-14.78 9.84-.22 19.68-1.67 29.52-4.41 3.58 5.42 6.55 10.82 8.92 16.25"/><clipPath id="b"><use xlink:href="#a"/></clipPath><clipPath id="c"><use xlink:href="#C"/></clipPath><clipPath id="d"><use xlink:href="#D"/></clipPath><clipPath id="e"><use xlink:href="#E"/></clipPath><clipPath id="f"><use xlink:href="#F"/></clipPath><clipPath id="g"><use xlink:href="#G"/></clipPath><clipPath id="h"><use xlink:href="#H"/></clipPath><clipPath id="i"><use xlink:href="#I"/></clipPath><clipPath id="j"><use xlink:href="#J"/></clipPath><clipPath id="k"><use xlink:href="#K"/></clipPath><clipPath id="l"><use xlink:href="#L"/></clipPath><clipPath id="m"><use xlink:href="#M"/></clipPath><clipPath id="n"><use xlink:href="#N"/></clipPath><clipPath id="o"><use xlink:href="#O"/></clipPath><clipPath id="p"><use xlink:href="#P"/></clipPath><clipPath id="q"><use xlink:href="#Q"/></clipPath><clipPath id="r"><use xlink:href="#R"/></clipPath><clipPath id="s"><use xlink:href="#S"/></clipPath><clipPath id="t"><use xlink:href="#T"/></clipPath><clipPath id="u"><use xlink:href="#U"/></clipPath><clipPath id="v"><use xlink:href="#V"/></clipPath><clipPath id="w"><use xlink:href="#W"/></clipPath><clipPath id="x"><use xlink:href="#X"/></clipPath><clipPath id="y"><use xlink:href="#Y"/></clipPath><clipPath id="z"><use xlink:href="#Z"/></clipPath><clipPath id="A"><use xlink:href="#aa"/></clipPath><clipPath id="B"><use xlink:href="#ab"/></clipPath><path id="C" d="m256.07 79.53c-12.58-.15-25.17-1.13-37.75-2.94 2.38-5.42 5.35-10.83 8.91-16.25 9.83 2.73 19.68 4.19 29.53 4.41-.29 4.93-.5 9.85-.69 14.78"/><path id="D" d="m358.18 119.5c-14.62-.94-29.24-1.69-43.87-2.2.69-5.59.69-11.17 0-16.74 14.63-.53 29.25-1.27 43.87-2.21 1.24 7.04 1.24 14.1 0 21.15"/><path id="E" d="m204.23 117.3c-14.62.51-29.25 1.26-43.87 2.2-1.23-7.05-1.23-14.11 0-21.16 14.62.95 29.24 1.69 43.87 2.21-.69 5.58-.69 11.16 0 16.75"/><path id="F" d="m347.77 145.85c-13.08-3.3-26.17-5.88-39.25-7.71 2.41-5.58 4.12-11.16 5.15-16.74 14.45.78 28.92 1.88 43.38 3.28-1.85 7.07-4.94 14.12-9.28 21.17"/><path id="G" d="m301.87 137.27c-13.1-1.59-26.18-2.44-39.26-2.57.16-4.92.28-9.85.34-14.77 14.46.05 28.92.41 43.36 1.1-.89 5.41-2.37 10.83-4.44 16.24"/><path id="H" d="m255.94 134.7c-13.09.13-26.16.97-39.25 2.57-2.09-5.41-3.57-10.83-4.46-16.23 14.46-.69 28.91-1.05 43.37-1.1.06 4.92.18 9.84.34 14.76"/><path id="I" d="m210.01 138.14c-13.07 1.84-26.15 4.41-39.23 7.71-4.34-7.05-7.43-14.1-9.27-21.16 14.46-1.4 28.91-2.5 43.36-3.28 1.03 5.57 2.74 11.15 5.14 16.73"/><path id="J" d="m325.83 172.2c-9.85-5.65-19.68-10.07-29.52-13.21 4.14-5.58 7.57-11.17 10.32-16.75 12.58 2.09 25.16 5.02 37.74 8.79-4.94 7.07-11.12 14.11-18.54 21.17"/><path id="K" d="m291.3 157.49c-9.84-2.73-19.68-4.19-29.52-4.4.28-4.93.51-9.85.7-14.77 12.58.15 25.16 1.13 37.74 2.94-2.38 5.41-5.35 10.82-8.92 16.23"/><path id="L" d="m256.77 153.09c-9.85.21-19.7 1.67-29.53 4.4-3.56-5.41-6.53-10.82-8.91-16.24 12.58-1.81 25.17-2.79 37.75-2.94.18 4.93.39 9.85.69 14.78"/><path id="M" d="m222.25 158.99c-9.86 3.14-19.69 7.56-29.53 13.21-7.42-7.06-13.61-14.1-18.54-21.16 12.58-3.77 25.17-6.69 37.74-8.79 2.75 5.57 6.19 11.16 10.33 16.74"/><path id="N" d="m388.52 50.17c-12.58 5.71-25.16 10.6-37.74 14.65-5.31-7.39-11.96-14.77-19.93-22.17 9.84-6.08 19.68-13.42 29.51-22.01 11.27 9.84 20.65 19.68 28.16 29.53"/><path id="O" d="m325.83 45.65c-9.85 5.66-19.68 10.06-29.52 13.21 4.14 5.57 7.57 11.15 10.32 16.74 12.58-2.1 25.16-5.03 37.74-8.79-4.94-7.06-11.12-14.11-18.54-21.16"/><path id="P" d="m222.25 58.86c-9.86-3.15-19.69-7.55-29.53-13.21-7.42 7.05-13.61 14.1-18.54 21.16 12.58 3.76 25.17 6.69 37.74 8.79 2.75-5.59 6.19-11.17 10.33-16.74"/><path id="Q" d="m187.69 42.65c-9.83-6.08-19.66-13.42-29.51-22.01-11.26 9.84-20.66 19.68-28.15 29.52 12.58 5.71 25.16 10.6 37.75 14.65 5.3-7.38 11.93-14.77 19.91-22.16"/><path id="R" d="m393.7 57.41c-13.1 5-26.17 9.28-39.26 12.84 4.66 7.38 7.98 14.77 9.97 22.15 14.45-1.52 28.91-3.35 43.36-5.49-2.81-9.82-7.51-19.67-14.07-29.5"/><path id="S" d="m347.77 72c-13.08 3.3-26.17 5.87-39.25 7.7 2.41 5.58 4.12 11.17 5.15 16.75 14.45-.79 28.92-1.89 43.38-3.3-1.85-7.05-4.94-14.1-9.28-21.15"/><path id="T" d="m301.87 80.57c-13.1 1.59-26.18 2.46-39.26 2.58.16 4.92.28 9.85.34 14.77 14.46-.06 28.92-.43 43.36-1.1-.89-5.42-2.37-10.83-4.44-16.25"/><path id="U" d="m255.94 83.15c-13.09-.12-26.16-.99-39.25-2.58-2.09 5.42-3.57 10.84-4.46 16.25 14.46.68 28.91 1.05 43.37 1.1.06-4.92.18-9.85.34-14.77"/><path id="V" d="m210.01 79.7c-13.07-1.83-26.15-4.41-39.23-7.7-4.34 7.05-7.43 14.1-9.27 21.15 14.46 1.41 28.91 2.51 43.36 3.3 1.03-5.58 2.74-11.17 5.14-16.75"/><path id="W" d="m164.1 70.26c-13.08-3.56-26.16-7.84-39.26-12.84-6.57 9.83-11.25 19.68-14.07 29.51 14.45 2.14 28.91 3.97 43.37 5.49 1.99-7.39 5.31-14.78 9.96-22.16"/><path id="X" d="m409.5 94.16c-14.62 1.44-29.25 2.66-43.88 3.68 1.36 7.38 1.36 14.77 0 22.17 14.63 1.02 29.26 2.23 43.88 3.67 1.89-9.83 1.89-19.68 0-29.52"/><path id="Y" d="m306.86 100.81c-14.62.46-29.24.71-43.87.73.05 4.92.05 9.84 0 14.77 14.62.03 29.24.27 43.87.73.59-5.41.59-10.82 0-16.23"/><path id="Z" d="m255.55 101.54c-14.62-.03-29.25-.28-43.87-.73-.59 5.41-.59 10.82 0 16.24 14.62-.46 29.24-.71 43.87-.73-.05-4.94-.05-9.86 0-14.78"/><path id="aa" d="m407.78 130.93c-14.46-2.14-28.91-3.98-43.36-5.49-1.99 7.38-5.31 14.77-9.97 22.16 13.08 3.55 26.16 7.83 39.26 12.85 6.55-9.84 11.25-19.69 14.07-29.52"/><path id="ab" d="m388.52 167.68c-12.58-5.71-25.16-10.59-37.74-14.65-5.31 7.39-11.96 14.77-19.93 22.15 9.84 6.08 19.68 13.43 29.51 22.02 11.27-9.83 20.65-19.68 28.16-29.52"/></defs><g fill="#0072bc"><path d="m116.97 273.33c0 2.41-1.13 3.61-3.4 3.61h-2.91c-2.26 0-3.39-1.2-3.39-3.6v-36.08l-28.45 37.01c-.75.97-1.65 1.7-2.71 2.2s-2.2.76-3.41.76c-1.19 0-2.31-.25-3.4-.75-1.09-.48-2.01-1.22-2.79-2.22l-28.99-37.18v36.25c0 2.41-1.15 3.6-3.44 3.6h-2.86c-2.27 0-3.4-1.2-3.4-3.6v-46.81c0-1.44.56-2.68 1.68-3.71 1.11-1.03 2.45-1.55 4.02-1.55.94 0 1.87.23 2.79.68.93.45 1.78 1.15 2.54 2.11l33.94 42.21 33.14-42.33c.61-.78 1.42-1.41 2.46-1.88 1.03-.47 2.12-.7 3.24-.7 1.55 0 2.79.42 3.73 1.26 1.07.96 1.61 2.4 1.61 4.31z"/><path d="m176.2 253.84-14.67-22.76-14.75 22.76zm23.27 17.93.08.65.04.7c0 1.01-.14 1.83-.45 2.41-.31.6-.71 1.06-1.24 1.41-1.24.82-2.37 1.23-3.38 1.23-.78 0-1.49-.23-2.15-.66s-1.32-1.15-1.95-2.14l-8.56-13.16h-40.74l-8.55 13.13c-.28.54-.53.94-.79 1.17-.6.61-1.34.92-2.2.92-.57 0-1.28-.18-2.1-.53-.96-.43-1.63-.95-2-1.54s-.57-1.18-.57-1.77l.04-.52.13-.39 30.55-49.13c.77-1.14 1.6-1.92 2.5-2.35s2.02-.65 3.4-.65c1.08.09 1.89.2 2.44.35 1.69.49 2.73 1.38 3.15 2.66z"/><path d="m266.86 270.6c.57.53.99 1.06 1.27 1.62.27.55.41 1.1.41 1.65 0 .87-.36 1.61-1.07 2.2-.69.59-1.66.89-2.87.89l-.6.06-.85.03c-.85 0-1.57-.07-2.16-.19-.6-.11-1.11-.38-1.54-.78l-24.11-21.43-24.37 21.43c-.32.3-.8.52-1.4.7-.61.18-1.43.27-2.44.27l-.77-.03-.56-.06c-1.22 0-2.17-.3-2.88-.89-.69-.59-1.05-1.34-1.05-2.24 0-1.16.57-2.23 1.7-3.22l24.86-22.01-24.03-21.1c-1.16-1.01-1.74-2.1-1.74-3.27 0-.83.36-1.55 1.06-2.15.69-.59 1.65-.88 2.87-.88h2.95c.23 0 .62.09 1.12.26.51.16.86.34 1.06.52l23.62 20.73 23.45-20.68c.14-.15.47-.32 1-.53.54-.21.94-.3 1.2-.3h2.84c1.19 0 2.12.29 2.83.88.7.6 1.06 1.33 1.06 2.2 0 1.13-.57 2.21-1.69 3.22l-23.87 21.1z"/><path d="m330.79 241.96v-7.6c0-1.83-1.43-3.14-4.26-3.95-2.07-.59-4.85-.88-8.35-.88h-34.03v19.21h34.08c3.96 0 6.88-.38 8.76-1.16 2.54-1.05 3.8-2.92 3.8-5.62m9.61.34c0 5.22-2.36 9.09-7.07 11.62-3.94 2.12-9.16 3.18-15.67 3.18h-33.51v16.25c0 2.41-1.15 3.6-3.44 3.6h-2.87c-2.26 0-3.4-1.2-3.4-3.6v-48.59c0-2.38 1.13-3.56 3.39-3.56h40.28c6.2 0 11.36 1.04 15.46 3.08 4.55 2.29 6.83 5.4 6.83 9.36z"/><path d="m417.35 273.34c0 2.41-1.13 3.6-3.43 3.6h-2.74c-2.29 0-3.43-1.2-3.43-3.61v-19.86h-46.74v19.86c0 2.41-1.15 3.61-3.44 3.61h-2.86c-2.26 0-3.39-1.2-3.39-3.6v-48.59c0-2.38 1.13-3.56 3.39-3.56h2.86c2.29 0 3.44 1.18 3.44 3.56v20.37h46.74v-20.37c0-2.38 1.14-3.56 3.43-3.56h2.74c2.3 0 3.43 1.18 3.43 3.56z"/><path d="m483.13 261.78v-25.2c0-2.52-1.21-4.33-3.63-5.41-2.43-1.09-6.1-1.63-11.02-1.63h-15.33c-4.78 0-8.37.52-10.75 1.57-2.66 1.15-3.96 2.97-3.96 5.47v25.2c0 2.48 1.28 4.27 3.84 5.34 2.32.99 5.97 1.48 10.88 1.48h15.36c4.74 0 8.27-.48 10.62-1.43 2.66-1.11 3.99-2.91 3.99-5.39m9.7.21c0 4.66-1.85 8.25-5.57 10.77-4.12 2.79-10.44 4.17-18.98 4.17h-15.05c-6.32 0-11.45-.81-15.37-2.43-3.3-1.36-5.73-3.29-7.27-5.79-1.24-2-1.87-4.23-1.87-6.69v-25.71c0-5.42 2.41-9.4 7.23-11.92 4.09-2.14 9.82-3.21 17.24-3.21h15.08c9.06 0 15.46 1.21 19.22 3.65 3.56 2.33 5.33 6.15 5.33 11.49v25.67z"/></g><use fill="#e4e5e6" xlink:href="#a"/><g clip-path="url(#b)"><path d="m261.78 60.35h38.43v19.18h-38.43z" fill="#e4e5e6"/></g><use fill="#e4e5e6" xlink:href="#C"/><g clip-path="url(#c)"><path d="m218.33 60.35h38.44v19.18h-38.44z" fill="#e4e5e6"/></g><use fill="#e4e5e6" xlink:href="#D"/><g clip-path="url(#d)"><path d="m314.31 98.34h45.11v21.16h-45.11z" fill="#e4e5e6"/></g><use fill="#e4e5e6" xlink:href="#E"/><g clip-path="url(#e)"><path d="m159.13 98.34h45.09v21.16h-45.09z" fill="#e4e5e6"/></g><use fill="#e4e5e6" xlink:href="#F"/><g clip-path="url(#f)"><path d="m308.52 121.4h48.52v24.45h-48.52z" fill="#e4e5e6"/></g><use fill="#e4e5e6" xlink:href="#G"/><g clip-path="url(#g)"><path d="m262.61 119.93h43.71v17.33h-43.71z" fill="#e4e5e6"/></g><use fill="#e4e5e6" xlink:href="#H"/><g clip-path="url(#h)"><path d="m212.23 119.93h43.72v17.33h-43.72z" fill="#e4e5e6"/></g><use fill="#e4e5e6" xlink:href="#I"/><g clip-path="url(#i)"><path d="m161.5 121.4h48.5v24.45h-48.5z" fill="#e4e5e6"/></g><use fill="#e4e5e6" xlink:href="#J"/><g clip-path="url(#j)"><path d="m296.31 142.25h48.05v29.95h-48.05z" fill="#e4e5e6"/></g><use fill="#e4e5e6" xlink:href="#K"/><g clip-path="url(#k)"><path d="m261.78 138.32h38.43v19.17h-38.43z" fill="#e4e5e6"/></g><use fill="#e4e5e6" xlink:href="#L"/><g clip-path="url(#l)"><path d="m218.33 138.32h38.44v19.17h-38.44z" fill="#e4e5e6"/></g><use fill="#e4e5e6" xlink:href="#M"/><g clip-path="url(#m)"><path d="m174.17 142.25h48.07v29.95h-48.07z" fill="#e4e5e6"/></g><use fill="#0072bc" xlink:href="#N"/><g clip-path="url(#n)"><path d="m330.85 20.64h57.67v44.17h-57.67z" fill="#0072bc"/></g><use fill="#0072bc" xlink:href="#O"/><g clip-path="url(#o)"><path d="m296.31 45.65h48.05v29.95h-48.05z" fill="#0072bc"/></g><use fill="#0072bc" xlink:href="#P"/><g clip-path="url(#p)"><path d="m174.17 45.65h48.07v29.95h-48.07z" fill="#0072bc"/></g><use fill="#0072bc" xlink:href="#Q"/><g clip-path="url(#q)"><path d="m130.03 20.64h57.67v44.17h-57.67z" fill="#0072bc"/></g><use fill="#0072bc" xlink:href="#R"/><g clip-path="url(#r)"><path d="m354.44 57.41h53.33v35h-53.33z" fill="#0072bc"/></g><use fill="#0072bc" xlink:href="#S"/><g clip-path="url(#s)"><path d="m308.52 72h48.52v24.45h-48.52z" fill="#0072bc"/></g><use fill="#0072bc" xlink:href="#T"/><g clip-path="url(#t)"><path d="m262.61 80.57h43.71v17.35h-43.71z" fill="#0072bc"/></g><use fill="#0072bc" xlink:href="#U"/><g clip-path="url(#u)"><path d="m212.23 80.57h43.72v17.35h-43.72z" fill="#0072bc"/></g><use fill="#0072bc" xlink:href="#V"/><g clip-path="url(#v)"><path d="m161.5 72h48.5v24.45h-48.5z" fill="#0072bc"/></g><use fill="#0072bc" xlink:href="#W"/><g clip-path="url(#w)"><path d="m110.77 57.41h53.33v35h-53.33z" fill="#0072bc"/></g><use fill="#0072bc" xlink:href="#X"/><g clip-path="url(#x)"><path d="m365.62 94.16h45.77v29.52h-45.77z" fill="#0072bc"/></g><use fill="#0072bc" xlink:href="#Y"/><g clip-path="url(#y)"><path d="m262.99 100.81h44.46v16.23h-44.46z" fill="#0072bc"/></g><use fill="#0072bc" xlink:href="#Z"/><g clip-path="url(#z)"><path d="m211.1 100.81h44.45v16.23h-44.45z" fill="#0072bc"/></g><path d="m152.93 97.84c-14.63-1.02-29.26-2.25-43.87-3.68-1.9 9.84-1.9 19.69 0 29.52 14.62-1.44 29.24-2.66 43.87-3.67-1.35-7.39-1.35-14.79 0-22.17" fill="#0072bc"/><use fill="#0072bc" xlink:href="#aa"/><g clip-path="url(#A)"><path d="m354.44 125.44h53.33v35.01h-53.33z" fill="#0072bc"/></g><path d="m154.14 125.44c-14.46 1.51-28.92 3.35-43.37 5.49 2.82 9.84 7.5 19.68 14.07 29.52 13.1-5.02 26.18-9.3 39.26-12.85-4.65-7.4-7.97-14.78-9.96-22.16" fill="#0072bc"/><use fill="#0072bc" xlink:href="#ab"/><g clip-path="url(#B)"><path d="m330.85 153.03h57.67v44.17h-57.67z" fill="#0072bc"/></g><path d="m167.78 153.03c-12.58 4.05-25.17 8.94-37.75 14.65 7.5 9.84 16.89 19.69 28.15 29.52 9.85-8.59 19.68-15.93 29.51-22.02-7.98-7.38-14.61-14.76-19.91-22.15" fill="#0072bc"/><path d="m404.31 22.18c.86.36 1.6.85 2.23 1.49s1.12 1.38 1.48 2.23c.36.86.53 1.78.53 2.75 0 1-.18 1.91-.53 2.77-.36.85-.86 1.59-1.48 2.21-.63.63-1.37 1.12-2.23 1.48-.85.36-1.78.54-2.77.54s-1.92-.18-2.77-.54-1.59-.85-2.22-1.48-1.13-1.37-1.48-2.21c-.36-.85-.55-1.77-.55-2.77 0-.98.18-1.89.55-2.75.35-.85.85-1.59 1.48-2.23.63-.63 1.37-1.13 2.22-1.49.86-.36 1.78-.54 2.77-.54s1.91.18 2.77.54zm-5.14.93c-.72.31-1.34.74-1.87 1.28s-.94 1.18-1.24 1.9c-.29.73-.44 1.52-.44 2.36s.15 1.63.44 2.36c.3.73.71 1.37 1.24 1.91s1.16.97 1.87 1.28c.73.31 1.51.47 2.37.47.85 0 1.63-.16 2.35-.47s1.35-.74 1.88-1.28.94-1.17 1.24-1.91c.31-.73.45-1.51.45-2.36 0-.84-.15-1.63-.45-2.36s-.71-1.36-1.24-1.9-1.15-.97-1.88-1.28c-.72-.31-1.5-.47-2.35-.47-.86 0-1.64.16-2.37.47zm-.17 9.61v-8.12h3.11c.91 0 1.58.19 2 .58.42.38.63.94.63 1.67 0 .35-.05.66-.16.92-.11.27-.26.49-.44.67-.19.18-.41.33-.66.44-.24.1-.5.18-.78.23l2.42 3.6h-1.17l-2.28-3.6h-1.68v3.6h-.99zm3.21-4.49c.3-.02.55-.07.78-.16.22-.09.41-.23.54-.42.14-.19.21-.46.21-.8 0-.29-.06-.52-.16-.7-.11-.17-.26-.32-.44-.42-.18-.11-.39-.18-.61-.22-.23-.04-.47-.06-.72-.06h-1.83v2.81h1.32c.32 0 .62-.01.91-.03z" fill="#0072bc"/></svg>