<svg width="67" height="16" viewBox="0 0 67 16" fill="none" xmlns="http://www.w3.org/2000/svg">
<path fill-rule="evenodd" clip-rule="evenodd" d="M5.76436 3.77561H10.2774C12.7004 3.77561 13.6123 5.0026 13.4723 6.8046C13.2393 9.7796 11.4403 11.4266 9.05435 11.4266H7.85435C7.52735 11.4266 7.30635 11.6436 7.21835 12.2266L6.70735 15.6406C6.67335 15.8616 6.55735 15.9906 6.38235 16.0076H3.54635C3.27935 16.0076 3.18535 15.8076 3.25535 15.3626L4.98436 4.41962C4.98956 4.32473 5.01436 4.23195 5.0572 4.14713C5.10005 4.0623 5.16001 3.98726 5.23329 3.92676C5.30657 3.86626 5.3916 3.82158 5.483 3.79556C5.5744 3.76955 5.6702 3.76276 5.76436 3.77561Z" fill="white"/>
<path fill-rule="evenodd" clip-rule="evenodd" d="M25.3583 3.5726C25.7419 3.52619 26.131 3.57025 26.4945 3.70124C26.858 3.83222 27.1858 4.04649 27.4517 4.32691C27.7175 4.60733 27.914 4.94608 28.0254 5.31607C28.1368 5.68607 28.1601 6.07703 28.0933 6.45761C27.8603 8.90461 26.5493 10.2576 24.4813 10.2636H22.6742C22.4142 10.2636 22.2882 10.4756 22.2212 10.9106L21.8722 13.1326C21.8202 13.4686 21.6472 13.6326 21.3932 13.6326H19.7122C19.4442 13.6326 19.3513 13.4616 19.4123 13.0776L20.8003 4.17758C20.8693 3.73958 21.0333 3.57761 21.3323 3.57761H25.3512L25.3583 3.5726ZM22.6203 8.3396H23.9892C24.8452 8.3066 25.4142 7.71359 25.4712 6.63959C25.486 6.48832 25.4672 6.33567 25.4162 6.19251C25.3652 6.04934 25.2832 5.91918 25.1762 5.81128C25.0691 5.70339 24.9396 5.62042 24.7969 5.56827C24.6541 5.51613 24.5016 5.49608 24.3502 5.50959L23.0612 5.5156L22.6193 8.3346L22.6203 8.3396ZM32.6643 12.9506C32.8183 12.8106 32.9743 12.7386 32.9523 12.9106L32.8973 13.3226C32.8693 13.5386 32.9543 13.6526 33.1543 13.6526H34.6513C34.9033 13.6526 35.0252 13.5526 35.0872 13.1626L36.0073 7.3866C36.0543 7.0966 35.9833 6.95459 35.7623 6.95459H34.1193C33.9713 6.95459 33.8992 7.03761 33.8602 7.26361L33.7992 7.61859C33.7682 7.80359 33.6823 7.8366 33.5993 7.6496C33.3213 6.9906 32.6102 6.69459 31.6182 6.71759C30.5558 6.74018 29.5433 7.17334 28.7933 7.92618C28.0432 8.67902 27.6139 9.69305 27.5953 10.7556C27.5496 11.1444 27.5866 11.5385 27.704 11.9119C27.8214 12.2854 28.0164 12.6298 28.2763 12.9225C28.5362 13.2153 28.855 13.4498 29.212 13.6106C29.5689 13.7714 29.9558 13.8549 30.3472 13.8556C30.7758 13.8831 31.2052 13.8168 31.6055 13.6614C32.0059 13.5059 32.3675 13.2651 32.6652 12.9556L32.6643 12.9506ZM31.4133 12.0616C31.1891 12.0708 30.9657 12.0297 30.7596 11.9412C30.5535 11.8527 30.3698 11.7191 30.2221 11.5503C30.0745 11.3814 29.9666 11.1816 29.9064 10.9655C29.8462 10.7494 29.8352 10.5225 29.8743 10.3016C29.9626 9.81561 30.2161 9.37501 30.5918 9.05432C30.9675 8.73364 31.4424 8.55253 31.9362 8.5416C32.1604 8.53234 32.3838 8.57347 32.5899 8.66196C32.796 8.75045 32.9797 8.88405 33.1274 9.05292C33.275 9.22179 33.383 9.42166 33.4432 9.63776C33.5034 9.85386 33.5143 10.0807 33.4752 10.3016C33.3871 10.7877 33.1337 11.2284 32.7579 11.5491C32.3822 11.8698 31.9072 12.0508 31.4133 12.0616ZM38.9273 6.93561H37.4123C37.1003 6.93561 36.9733 7.1686 37.0723 7.4556L38.9523 12.9616L37.1083 15.5816C36.9533 15.8006 37.0732 15.9996 37.2912 15.9996H38.9913C39.0905 16.0111 39.1909 15.9939 39.2807 15.9499C39.3704 15.906 39.4456 15.8371 39.4972 15.7516L45.2803 7.4516C45.4583 7.1966 45.3743 6.92859 45.0802 6.92859H43.4693C43.1933 6.92859 43.0822 7.03761 42.9242 7.26761L40.5123 10.7676L39.4343 7.26761C39.4035 7.16033 39.3348 7.06783 39.241 7.00733C39.1472 6.94682 39.0347 6.92241 38.9242 6.9386L38.9273 6.93561Z" fill="#D2D2D2"/>
<path fill-rule="evenodd" clip-rule="evenodd" d="M51.2993 3.57255C51.6833 3.52585 52.0729 3.56978 52.4368 3.70085C52.8008 3.83192 53.1289 4.04648 53.3949 4.32728C53.6609 4.60809 53.8574 4.94732 53.9686 5.31779C54.0799 5.68827 54.1027 6.07966 54.0354 6.46055C53.8024 8.90755 52.4914 10.2606 50.4234 10.2666H48.6173C48.3573 10.2666 48.2313 10.4786 48.1643 10.9136L47.8153 13.1355C47.7633 13.4715 47.5903 13.6355 47.3363 13.6355H45.6554C45.3874 13.6355 45.2944 13.4645 45.3554 13.0805L46.7453 4.17357C46.8143 3.73557 46.9784 3.57356 47.2774 3.57356H51.3013L51.2993 3.57255ZM48.5614 8.33955H49.9303C50.7863 8.30655 51.3554 7.71354 51.4124 6.63954C51.4271 6.48827 51.4083 6.33562 51.3573 6.19246C51.3063 6.04929 51.2243 5.91913 51.1173 5.81123C51.0102 5.70334 50.8807 5.62037 50.738 5.56822C50.5952 5.51607 50.4427 5.49606 50.2913 5.50956L49.0023 5.51555L48.5603 8.33455L48.5614 8.33955ZM58.6054 12.9505C58.7594 12.8105 58.9153 12.7386 58.8933 12.9106L58.8383 13.3226C58.8103 13.5386 58.8954 13.6525 59.0954 13.6525H60.5894C60.8414 13.6525 60.9633 13.5526 61.0253 13.1625L61.9453 7.38655C61.9923 7.09655 61.9203 6.95454 61.7003 6.95454H60.0603C59.9123 6.95454 59.8403 7.03756 59.8013 7.26356L59.7404 7.61854C59.7094 7.80354 59.6234 7.83655 59.5404 7.64955C59.2614 6.99055 58.5513 6.69454 57.5593 6.71754C56.4969 6.74013 55.4844 7.17329 54.7344 7.92613C53.9843 8.67897 53.555 9.69303 53.5363 10.7556C53.4906 11.1444 53.5277 11.5384 53.6451 11.9119C53.7625 12.2853 53.9575 12.6297 54.2174 12.9225C54.4773 13.2153 54.7961 13.4497 55.153 13.6105C55.51 13.7714 55.8969 13.8548 56.2883 13.8555C56.7169 13.883 57.1463 13.8168 57.5466 13.6613C57.947 13.5059 58.3086 13.265 58.6063 12.9555L58.6054 12.9505ZM57.3554 12.0616C57.1312 12.0708 56.9078 12.0297 56.7017 11.9412C56.4955 11.8527 56.3119 11.7191 56.1642 11.5502C56.0165 11.3813 55.9087 11.1815 55.8485 10.9654C55.7883 10.7493 55.7773 10.5225 55.8164 10.3016C55.9047 9.81556 56.1582 9.37496 56.5339 9.05427C56.9096 8.73359 57.3845 8.55247 57.8784 8.54155C58.1025 8.53229 58.3259 8.57342 58.532 8.66191C58.7381 8.7504 58.9218 8.884 59.0695 9.05287C59.2171 9.22174 59.3251 9.42161 59.3853 9.63771C59.4455 9.85381 59.4564 10.0807 59.4173 10.3016C59.329 10.7876 59.0756 11.2281 58.6998 11.5488C58.3241 11.8695 57.8492 12.0506 57.3554 12.0616ZM64.2443 13.6615H62.5233C62.4931 13.6636 62.4629 13.6589 62.4348 13.6476C62.4068 13.6363 62.3816 13.6187 62.3613 13.5963C62.341 13.5739 62.326 13.5471 62.3175 13.518C62.309 13.489 62.3073 13.4584 62.3123 13.4285L63.8274 3.82857C63.8423 3.76326 63.8787 3.70484 63.9307 3.66261C63.9827 3.62038 64.0474 3.59678 64.1143 3.59556H65.8383C65.8685 3.59347 65.8988 3.59826 65.9269 3.60957C65.955 3.62088 65.9801 3.63841 66.0004 3.66084C66.0207 3.68327 66.0357 3.71 66.0441 3.73906C66.0526 3.76811 66.0544 3.79873 66.0493 3.82857L64.5343 13.4285C64.5198 13.4942 64.4836 13.5531 64.4315 13.5957C64.3795 13.6383 64.3146 13.6622 64.2473 13.6636L64.2443 13.6615Z" fill="white"/>
<path fill-rule="evenodd" clip-rule="evenodd" d="M2.94129 0.00863021H7.4593C8.7313 0.00863021 10.2413 0.0496066 11.2503 0.940607C11.5958 1.26533 11.8612 1.66585 12.0255 2.11062C12.1899 2.55539 12.2487 3.03226 12.1973 3.50363C11.9203 6.95363 9.8563 8.88561 7.0883 8.88561H4.8603C4.4803 8.88561 4.2303 9.13762 4.1233 9.81762L3.50129 13.7786C3.46029 14.0346 3.3503 14.1866 3.1513 14.2046H0.363291C0.0542912 14.2046 -0.0547062 13.9716 0.0252938 13.4566L2.02529 0.756616C2.03133 0.645475 2.06049 0.536815 2.11091 0.437585C2.16133 0.338356 2.23191 0.250753 2.31813 0.180353C2.40434 0.109952 2.50429 0.0583106 2.6116 0.0287413C2.7189 -0.000828048 2.83119 -0.00767271 2.94129 0.00863021Z" fill="#D2D2D2"/>
<path fill-rule="evenodd" clip-rule="evenodd" d="M4.18933 9.41352L4.97833 4.41852C4.98322 4.32281 5.008 4.22917 5.05107 4.14356C5.09415 4.05795 5.15457 3.98223 5.22852 3.92127C5.30246 3.8603 5.38829 3.81542 5.48055 3.78946C5.5728 3.7635 5.66946 3.75705 5.76434 3.77051H10.2773C10.902 3.75037 11.5238 3.86355 12.1013 4.10251C11.6483 7.17351 9.66134 8.87952 7.06134 8.87952H4.83734C4.68399 8.87891 4.53525 8.93195 4.4169 9.02948C4.29855 9.12701 4.21804 9.26287 4.18933 9.41352Z" fill="#B6B6B6"/>
</svg>
