<svg width="26" height="26" viewBox="0 0 26 26" fill="none" xmlns="http://www.w3.org/2000/svg">
<g clip-path="url(#clip0_786_757)">
<path d="M16.8636 11.9583C18.5928 11.9583 19.9782 10.5625 19.9782 8.83334C19.9782 7.10418 18.5928 5.70834 16.8636 5.70834C15.1345 5.70834 13.7386 7.10418 13.7386 8.83334C13.7386 10.5625 15.1345 11.9583 16.8636 11.9583ZM8.53031 11.9583C10.2595 11.9583 11.6449 10.5625 11.6449 8.83334C11.6449 7.10418 10.2595 5.70834 8.53031 5.70834C6.80115 5.70834 5.40531 7.10418 5.40531 8.83334C5.40531 10.5625 6.80115 11.9583 8.53031 11.9583ZM8.53031 14.0417C6.10323 14.0417 1.23865 15.2604 1.23865 17.6875V20.2917H15.822V17.6875C15.822 15.2604 10.9574 14.0417 8.53031 14.0417ZM16.8636 14.0417C16.5616 14.0417 16.2178 14.0625 15.8532 14.0938C17.0616 14.9688 17.9053 16.1458 17.9053 17.6875V20.2917H24.1553V17.6875C24.1553 15.2604 19.2907 14.0417 16.8636 14.0417Z" fill="#2F2E2E"/>
</g>
<defs>
<clipPath id="clip0_786_757">
<rect width="25" height="25" fill="white" transform="translate(0.197021 0.5)"/>
</clipPath>
</defs>
</svg>
