<svg width="51" height="17" viewBox="0 0 51 17" fill="none" xmlns="http://www.w3.org/2000/svg">
<path d="M21.9422 16.1209H17.8502L20.4092 0.295898H24.5012L21.9422 16.1209Z" fill="white"/>
<path d="M36.7743 0.681917C35.6035 0.230879 34.3589 0.00229515 33.1043 0.00791361C29.0633 0.00791361 26.2183 2.16291 26.2043 5.24291C26.1703 7.51591 28.2413 8.77791 29.7903 9.53591C31.3733 10.3099 31.9113 10.8159 31.9113 11.5059C31.8953 12.5659 30.6323 13.0549 29.4543 13.0549C28.1251 13.0919 26.807 12.8028 25.6153 12.2129L25.0763 11.9599L24.5033 15.5119C25.9584 16.0761 27.5066 16.3617 29.0673 16.3539C33.3603 16.3539 36.1563 14.2329 36.1893 10.9539C36.2053 9.15391 35.1123 7.77192 32.7543 6.64392C31.3233 5.91992 30.4463 5.43192 30.4463 4.69092C30.4633 4.01692 31.1873 3.32791 32.8033 3.32791C33.852 3.29737 34.8941 3.50454 35.8513 3.93392L36.2213 4.10192L36.7773 0.684916L36.7743 0.681917Z" fill="white"/>
<path d="M42.2133 10.5148C42.5503 9.60582 43.8472 6.08682 43.8472 6.08682C43.8302 6.12082 44.1833 5.16082 44.3853 4.57182L44.6712 5.93582C44.6712 5.93582 45.4463 9.72382 45.6143 10.5148H42.2133ZM47.2642 0.295819H44.0992C43.6469 0.241181 43.1893 0.341188 42.8009 0.579572C42.4126 0.817955 42.1163 1.1807 41.9602 1.60882L35.8822 16.1208H40.1752L41.0342 13.7468H46.2882C46.4052 14.3028 46.7762 16.1208 46.7762 16.1208H50.5602L47.2603 0.295819H47.2642Z" fill="white"/>
<path d="M14.4312 0.295898L10.4242 11.0869L9.98622 8.8979C8.98919 6.06141 6.9728 3.69713 4.32922 2.2649L8.00023 16.1039H12.3272L18.7592 0.295898H14.4312Z" fill="white"/>
<path d="M6.70225 0.296024H0.119247L0.0522461 0.616023C5.18725 1.92902 8.58924 5.09503 9.98624 8.90003L8.55524 1.62703C8.46766 1.2145 8.22926 0.849508 7.88671 0.603511C7.54417 0.357515 7.12214 0.24822 6.70325 0.297023L6.70225 0.296024Z" fill="#D2D2D2"/>
</svg>
