<svg width="15" height="16" viewBox="0 0 15 16" fill="none" xmlns="http://www.w3.org/2000/svg">
<path fill-rule="evenodd" clip-rule="evenodd" d="M12.2491 2.83666C10.912 1.49792 9.13369 0.760339 7.23911 0.759521C3.33533 0.759521 0.158088 3.93656 0.156521 7.84157C0.156044 9.08981 0.482109 10.3082 1.10194 11.3823L0.097168 15.0524L3.85172 14.0675C4.8862 14.6318 6.0509 14.9292 7.23625 14.9296H7.23918C11.1426 14.9296 14.3201 11.7522 14.3217 7.84709C14.3224 5.95475 13.5863 4.17533 12.2491 2.83666ZM7.23918 13.7335H7.23679C6.18051 13.7331 5.14446 13.4493 4.24068 12.9129L4.02569 12.7854L1.79768 13.3698L2.39236 11.1975L2.2524 10.9747C1.66316 10.0375 1.35189 8.95427 1.35236 7.84191C1.35366 4.59625 3.99441 1.95571 7.24156 1.95571C8.81383 1.95625 10.2919 2.56933 11.4033 3.68211C12.5147 4.79482 13.1264 6.2738 13.1258 7.84674C13.1245 11.0927 10.4837 13.7335 7.23918 13.7335ZM10.4681 9.32456C10.2912 9.23605 9.42119 8.8079 9.25894 8.74882C9.09676 8.68988 8.97873 8.66031 8.86078 8.83748C8.74282 9.01465 8.40361 9.41322 8.30037 9.53138C8.19713 9.6494 8.0939 9.66426 7.917 9.5756C7.73996 9.48709 7.16981 9.30017 6.49383 8.69724C5.96776 8.22801 5.6126 7.64852 5.50937 7.47128C5.40613 7.2941 5.49833 7.19836 5.58698 7.11012C5.66657 7.0308 5.76395 6.90337 5.85247 6.80007C5.94098 6.69676 5.97042 6.62289 6.02943 6.5048C6.08845 6.38671 6.05894 6.28334 6.01465 6.19482C5.97042 6.10617 5.61649 5.23509 5.46902 4.88075C5.32538 4.53574 5.17948 4.58242 5.07086 4.57697C4.96776 4.57186 4.84967 4.5707 4.73165 4.5707C4.61369 4.5707 4.42201 4.61499 4.25976 4.79216C4.09758 4.96933 3.6404 5.39748 3.6404 6.26855C3.6404 7.13962 4.27448 7.98105 4.36299 8.09921C4.45144 8.21731 5.6109 10.0048 7.3861 10.7714C7.80824 10.9537 8.13792 11.0626 8.39495 11.1442C8.81894 11.2789 9.2047 11.2598 9.50957 11.2143C9.8496 11.1635 10.5566 10.7862 10.7041 10.3728C10.8515 9.95939 10.8515 9.60504 10.8073 9.53124C10.7631 9.45751 10.6451 9.41322 10.4681 9.32456Z" fill="#006EC6"/>
</svg>
