<svg width="20" height="20" viewBox="0 0 20 20" fill="none" xmlns="http://www.w3.org/2000/svg">
<rect x="0.000244141" width="20" height="20" rx="3" fill="white"/>
<path fill-rule="evenodd" clip-rule="evenodd" d="M15.2491 4.83666C13.912 3.49792 12.1337 2.76034 10.2391 2.75952C6.33533 2.75952 3.15809 5.93656 3.15652 9.84157C3.15604 11.0898 3.48211 12.3082 4.10194 13.3823L3.09717 17.0524L6.85172 16.0675C7.8862 16.6318 9.0509 16.9292 10.2362 16.9296H10.2392C14.1426 16.9296 17.3201 13.7522 17.3217 9.84709C17.3224 7.95475 16.5863 6.17533 15.2491 4.83666ZM10.2392 15.7335H10.2368C9.18051 15.7331 8.14446 15.4493 7.24068 14.9129L7.02569 14.7854L4.79768 15.3698L5.39236 13.1975L5.2524 12.9747C4.66316 12.0375 4.35189 10.9543 4.35236 9.84191C4.35366 6.59625 6.99441 3.95571 10.2416 3.95571C11.8138 3.95625 13.2919 4.56933 14.4033 5.68211C15.5147 6.79482 16.1264 8.2738 16.1258 9.84674C16.1245 13.0927 13.4837 15.7335 10.2392 15.7335ZM13.4681 11.3246C13.2912 11.236 12.4212 10.8079 12.2589 10.7488C12.0968 10.6899 11.9787 10.6603 11.8608 10.8375C11.7428 11.0146 11.4036 11.4132 11.3004 11.5314C11.1971 11.6494 11.0939 11.6643 10.917 11.5756C10.74 11.4871 10.1698 11.3002 9.49383 10.6972C8.96776 10.228 8.6126 9.64852 8.50937 9.47128C8.40613 9.2941 8.49833 9.19836 8.58698 9.11012C8.66657 9.0308 8.76395 8.90337 8.85247 8.80007C8.94098 8.69676 8.97042 8.62289 9.02943 8.5048C9.08845 8.38671 9.05894 8.28334 9.01465 8.19482C8.97042 8.10617 8.61649 7.23509 8.46902 6.88075C8.32538 6.53574 8.17948 6.58242 8.07086 6.57697C7.96776 6.57186 7.84967 6.5707 7.73165 6.5707C7.61369 6.5707 7.42201 6.61499 7.25976 6.79216C7.09758 6.96933 6.6404 7.39748 6.6404 8.26855C6.6404 9.13962 7.27448 9.98105 7.36299 10.0992C7.45144 10.2173 8.6109 12.0048 10.3861 12.7714C10.8082 12.9537 11.1379 13.0626 11.395 13.1442C11.8189 13.2789 12.2047 13.2598 12.5096 13.2143C12.8496 13.1635 13.5566 12.7862 13.7041 12.3728C13.8515 11.9594 13.8515 11.605 13.8073 11.5312C13.7631 11.4575 13.6451 11.4132 13.4681 11.3246Z" fill="#006EC6"/>
</svg>
